<?xml version="1.0" encoding="utf-8"?>
<!-- Generator: Adobe Illustrator 23.1.0, SVG Export Plug-In . SVG Version: 6.00 Build 0)  -->
<svg version="1.1" id="Layer_1" xmlns="http://www.w3.org/2000/svg" xmlns:xlink="http://www.w3.org/1999/xlink" x="0px" y="0px"
	 viewBox="0 0 40 68" style="enable-background:new 0 0 40 68;" xml:space="preserve">
<style type="text/css">
	.st0{fill-rule:evenodd;clip-rule:evenodd;fill:#74058D;}
	.st1{fill:#74058D;}
</style>
<path class="st0" d="M29.5,24.7c0,5-4,9-9,9s-9-4-9-9s4-9,9-9C25.5,15.7,29.5,19.7,29.5,24.7z M23,21.9c0,0.8-0.6,1.4-1.4,1.4
	s-1.4-0.6-1.4-1.4c0-0.8,0.6-1.4,1.4-1.4S23,21.1,23,21.9z M25.3,23.3c0.6,0,1.2-0.5,1.2-1.2c0-0.6-0.5-1.2-1.2-1.2
	s-1.2,0.5-1.2,1.2C24.1,22.8,24.6,23.3,25.3,23.3z"/>
<path class="st1" d="M8.2,30.4l7.2-4.2l1.6,1.1l-6,6.4L8.2,30.4z"/>
<g>
	<path class="st0" d="M33,21.8l0.1,0.3l-4.2,2.1V25l4.2,1.5L33,26.9l-4.5-1.6v-1.3L33,21.8z"/>
	<path class="st1" d="M33.1,27.3c-0.1,0-0.1,0-0.1,0l-4.5-1.6c-0.1-0.1-0.2-0.2-0.2-0.3v-1.3c0-0.1,0.1-0.2,0.2-0.2l4.4-2.3
		c0.1-0.1,0.2-0.1,0.2,0c0.1,0,0.1,0.1,0.2,0.2l0.1,0.3c0.1,0.1,0,0.3-0.1,0.4l-4,2.1V25l4.1,1.4c0.1,0,0.1,0.1,0.2,0.2
		c0.1,0.1,0.1,0.2,0,0.2l-0.1,0.3C33.4,27.2,33.3,27.3,33.1,27.3z"/>
</g>
<g>
	<path class="st0" d="M17.4,50.9V31.3h0.4v19.7l6.7,1.2l-0.1,0.4l-4.8-0.9l6.3,2.3l-0.1,0.3l-7.2-2.6l2.7,2.3L21,54.2l-3.5-2.9
		l-4.5,0.5L13,51.4L17.4,50.9z"/>
	<path class="st1" d="M25.7,54.5c-0.1,0-0.1,0-0.1,0l-5.5-1.9l1.3,1.1c0.1,0.1,0.1,0.3,0.1,0.4l-0.3,0.3c-0.1,0.1-0.1,0.1-0.2,0.1
		c-0.1,0-0.2,0-0.2-0.1l-3.3-2.7L13,52.2c-0.2,0-0.3-0.1-0.4-0.2v-0.5c0-0.1,0-0.2,0.1-0.2c0.1-0.1,0.1-0.1,0.2-0.1l4.1-0.5V31.3
		c0-0.2,0.1-0.3,0.3-0.3h0.4c0.2,0,0.3,0.1,0.3,0.3v19.3l6.5,1.1c0.2,0,0.3,0.2,0.2,0.4l-0.1,0.3c0,0.1-0.1,0.1-0.1,0.2
		c-0.1,0.1-0.1,0.1-0.2,0.1l-1.1-0.2l2.6,0.9c0.1,0,0.1,0.1,0.2,0.2c0.1,0.1,0.1,0.2,0,0.2l-0.1,0.3C25.9,54.5,25.8,54.5,25.7,54.5z
		 M19.2,51.6L19.2,51.6L19.2,51.6L19.2,51.6L19.2,51.6z M18.1,51.4l0.1,0.1l0.1-0.1H18.1z M17.4,50.9L17.4,50.9L17.4,50.9z"/>
</g>
<g>
	<path class="st0" d="M23.1,48.1V28.5h0.4v19.7l5.7,1.2l-0.1,0.3L25,48.8l5.3,2.3l-0.1,0.3l-6.2-2.6l2.3,2.3l-0.2,0.2l-2.8-2.7
		l-3.9,0.5l-0.1-0.3L23.1,48.1z"/>
	<path class="st1" d="M30.2,51.7c-0.1,0-0.1,0-0.1,0l-4.5-1.9l1.1,1.1c0.1,0.1,0.1,0.1,0.1,0.2s-0.1,0.2-0.1,0.2l-0.2,0.4
		c-0.1,0.1-0.3,0.1-0.4,0L23.2,49l-3.8,0.5c-0.1,0-0.2,0-0.2-0.1c-0.1-0.1-0.1-0.1-0.1-0.2L19,48.9c0-0.2,0.1-0.3,0.2-0.4l3.5-0.4
		V28.7c0-0.2,0.1-0.3,0.3-0.3h0.4c0.2,0,0.3,0.1,0.3,0.3v19.4l5.5,1.1c0.2,0.1,0.2,0.2,0.2,0.4L29.4,50c0,0.1-0.1,0.1-0.1,0.2
		c-0.1,0.1-0.1,0.1-0.2,0.1l-0.9-0.2l2.3,0.9c0.2,0.1,0.2,0.2,0.2,0.4l-0.1,0.3c-0.1,0.1-0.1,0.1-0.2,0.2
		C30.3,51.7,30.3,51.7,30.2,51.7z M24.7,48.7L24.7,48.7L24.7,48.7L24.7,48.7L24.7,48.7z M23.7,48.6L23.7,48.6h0.1H23.7z M23.1,48.1
		L23.1,48.1L23.1,48.1z"/>
</g>
</svg>
