<?xml version="1.0" encoding="utf-8"?>
<!-- Generator: Adobe Illustrator 23.1.0, SVG Export Plug-In . SVG Version: 6.00 Build 0)  -->
<svg version="1.1" id="Layer_1" xmlns="http://www.w3.org/2000/svg" xmlns:xlink="http://www.w3.org/1999/xlink" x="0px" y="0px"
	 viewBox="0 0 43.3 74.3" style="enable-background:new 0 0 43.3 74.3;" xml:space="preserve">
<style type="text/css">
	.st0{fill-rule:evenodd;clip-rule:evenodd;fill:#BB6BD9;}
	.st1{fill:#BB6BD9;}
</style>
<path class="st0" d="M34.5,15.5c0,7.6-6.1,13.7-13.7,13.7c-7.6,0-13.7-6.1-13.7-13.7S13.2,1.8,20.8,1.8C28.3,1.8,34.5,7.9,34.5,15.5
	z M24.6,11.2c0,1.2-1,2.2-2.2,2.2s-2.2-1-2.2-2.2s1-2.2,2.2-2.2C23.6,9,24.6,10,24.6,11.2z M28.1,13.4c1,0,1.8-0.8,1.8-1.8
	s-0.8-1.8-1.8-1.8s-1.8,0.8-1.8,1.8S27.1,13.4,28.1,13.4z"/>
<path class="st1" d="M2,24.3l11.1-6.4l2.4,1.6l-9.3,9.7L2,24.3z"/>
<g>
	<path class="st0" d="M40,11l0.2,0.5l-6.5,3.2V16l6.5,2.3L40,18.8l-6.9-2.4v-2L40,11z"/>
	<path class="st1" d="M40.1,19.4c-0.1,0-0.1,0-0.2,0L33,17c-0.2-0.1-0.3-0.3-0.3-0.5v-2c0-0.2,0.1-0.4,0.3-0.4l6.8-3.4
		c0.1-0.1,0.3-0.1,0.4,0c0.1,0,0.2,0.1,0.3,0.3l0.2,0.5c0.1,0.2,0,0.5-0.2,0.7l-6.2,3.1v0.6l6.2,2.1c0.1,0,0.2,0.1,0.3,0.3
		c0.1,0.1,0.1,0.3,0,0.4l-0.2,0.5C40.5,19.2,40.3,19.4,40.1,19.4z"/>
</g>
<g>
	<path class="st0" d="M16,65.3V25.6h0.6v39.8l10.3,1.8l-0.1,0.5l-7.3-1.3l9.5,3.4l-0.2,0.5l-11-4l4.1,3.5l-0.4,0.4l-5.2-4.4
		l-6.9,0.8L9.3,66L16,65.3z"/>
	<path class="st1" d="M28.7,70.8c-0.1,0-0.1,0-0.2,0l-8.4-3l2,1.7c0.2,0.2,0.2,0.5,0.1,0.7l-0.4,0.4c-0.1,0.1-0.2,0.2-0.3,0.2
		s-0.3,0-0.4-0.1L16,66.4l-6.7,0.8c-0.3,0-0.5-0.2-0.6-0.4l-0.1-0.6c0-0.1,0-0.3,0.1-0.4c0.1-0.1,0.2-0.2,0.3-0.2l6.3-0.8V25.5
		c0-0.3,0.2-0.5,0.5-0.5h0.6c0.3,0,0.5,0.2,0.5,0.5v39.3l9.9,1.7c0.3,0,0.5,0.3,0.4,0.6l-0.1,0.5c0,0.1-0.1,0.2-0.2,0.3
		C26.8,68,26.7,68,26.5,68l-1.6-0.3l4,1.4c0.1,0,0.2,0.1,0.3,0.3s0.1,0.3,0,0.4L29,70.3C29.1,70.7,28.9,70.8,28.7,70.8z M18.8,66.3
		L18.8,66.3L18.8,66.3L18.8,66.3L18.8,66.3z M17.1,66l0.2,0.1l0.1-0.1H17.1z M16,65.3L16,65.3L16,65.3z"/>
</g>
<g>
	<path class="st0" d="M24.8,61V21.3h0.6v39.8l8.8,1.8l-0.1,0.5l-6.2-1.3l8.1,3.4L35.8,66l-9.4-3.9l3.5,3.5L29.5,66L25,61.6l-5.9,0.8
		L19,61.9L24.8,61z"/>
	<path class="st1" d="M35.7,66.5c-0.1,0-0.1,0-0.2,0l-7-2.9l1.7,1.7c0.1,0.1,0.1,0.2,0.1,0.4c0,0.2-0.1,0.3-0.1,0.4l-0.4,0.4
		c-0.2,0.2-0.5,0.2-0.7,0l-4.3-4.2l-5.6,0.8c-0.1,0-0.3,0-0.4-0.1c-0.1-0.1-0.2-0.2-0.2-0.3l-0.1-0.5c0-0.3,0.2-0.5,0.4-0.6l5.3-0.7
		V21.6c0-0.3,0.2-0.5,0.5-0.5h0.6c0.3,0,0.5,0.2,0.5,0.5V61l8.4,1.7c0.3,0.1,0.4,0.3,0.4,0.6l-0.1,0.5c0,0.1-0.1,0.2-0.2,0.3
		s-0.2,0.1-0.4,0.1l-1.3-0.3l3.4,1.4c0.3,0.1,0.4,0.4,0.3,0.7l-0.2,0.5c-0.1,0.1-0.1,0.2-0.3,0.3C35.8,66.5,35.8,66.5,35.7,66.5z
		 M27.3,61.9L27.3,61.9L27.3,61.9L27.3,61.9L27.3,61.9z M25.8,61.6L25.8,61.6H26H25.8z M24.8,61L24.8,61L24.8,61z"/>
</g>
</svg>
