<svg width="228" height="69" viewBox="0 0 228 69" fill="none" xmlns="http://www.w3.org/2000/svg">
<path d="M70.8989 32V64H60.2631V53.76C58.1237 54.4 56.183 54.72 54.4409 54.72C49.7342 54.72 46.1431 53.6076 43.6675 51.3829C41.2225 49.1581 40 45.9124 40 41.6457V32H50.6358V40.4571C50.6358 42.4076 51.0637 43.8552 51.9195 44.8C52.7752 45.7143 54.0741 46.1714 55.8162 46.1714C57.6194 46.1714 59.1017 45.9276 60.2631 45.44V32H70.8989Z" fill="#39446B"/>
<path d="M79.3181 32H89.9539V48.64L101.002 32H111.18V64H100.544V47.4057L89.5413 64H79.3181V32Z" fill="#39446B"/>
<path d="M135.08 32C138.044 32 140.627 32.4876 142.827 33.4629C145.028 34.4381 146.724 35.84 147.916 37.6686C149.108 39.4971 149.704 41.6305 149.704 44.0686C149.704 46.5067 149.108 48.64 147.916 50.4686C146.724 52.2971 145.028 53.699 142.827 54.6743C140.627 55.6495 138.044 56.1371 135.08 56.1371H130.45V64H119.63V32H135.08ZM134.392 47.8171C135.859 47.8171 136.959 47.4971 137.693 46.8571C138.426 46.1867 138.793 45.2571 138.793 44.0686C138.793 42.88 138.426 41.9657 137.693 41.3257C136.959 40.6552 135.859 40.32 134.392 40.32H130.45V47.8171H134.392Z" fill="#39446B"/>
<path d="M155.734 32H166.37V48.64L177.419 32H187.596V64H176.96V47.4057L165.958 64H155.734V32Z" fill="#39446B"/>
<path d="M218.464 47.5429L227.954 64H215.76L209.617 52.4343H206.591V64H195.772V32H206.591V43.9314H209.892L216.722 32H228L218.464 47.5429Z" fill="#39446B"/>
<path fill-rule="evenodd" clip-rule="evenodd" d="M32.512 13.7082C32.512 21.279 26.3746 27.4164 18.8038 27.4164C11.2329 27.4164 5.09558 21.279 5.09558 13.7082C5.09558 6.13737 11.2329 0 18.8038 0C26.3746 0 32.512 6.13737 32.512 13.7082ZM22.6531 9.44342C22.6531 10.6517 21.6736 11.6312 20.4654 11.6312C19.2571 11.6312 18.2776 10.6517 18.2776 9.44342C18.2776 8.23515 19.2571 7.25565 20.4654 7.25565C21.6736 7.25565 22.6531 8.23515 22.6531 9.44342ZM26.1148 11.6312C27.109 11.6312 27.9149 10.8253 27.9149 9.83113C27.9149 8.83698 27.109 8.03106 26.1148 8.03106C25.1207 8.03106 24.3147 8.83698 24.3147 9.83113C24.3147 10.8253 25.1207 11.6312 26.1148 11.6312Z" fill="#39446B"/>
<path d="M0 22.5424L11.0773 16.1175L13.5143 17.6683L4.20938 27.4164L0 22.5424Z" fill="#39446B"/>
<path fill-rule="evenodd" clip-rule="evenodd" d="M38.0657 9.27859L38.3126 9.7744L31.792 13.0212V14.3145L38.2803 16.576L38.098 17.099L31.2382 14.708V12.6782L38.0657 9.27859Z" fill="#39446B"/>
<path fill-rule="evenodd" clip-rule="evenodd" d="M14.0682 63.5871V23.844H14.6221V63.6002L24.8884 65.388L24.7934 65.9337L17.4542 64.6556L26.9285 68.0588L26.7412 68.5801L15.7002 64.6141L19.8409 68.1078L19.4837 68.5311L14.2584 64.1223L7.37137 64.9389L7.30615 64.3889L14.0682 63.5871Z" fill="#39446B"/>
<path fill-rule="evenodd" clip-rule="evenodd" d="M22.8488 59.2439V19.4961H23.4027V59.2589L32.1857 61.0416L32.0756 61.5844L25.8277 60.3162L33.9483 63.7161L33.7344 64.227L24.3451 60.296L27.8818 63.7741L27.4934 64.169L23.0287 59.7782L17.1525 60.5904L17.0767 60.0417L22.8488 59.2439Z" fill="#39446B"/>
</svg>
